<svg xmlns="http://www.w3.org/2000/svg" viewBox="0 0 32 32">
  <rect width="32" height="32" rx="7" fill="#0071E3"/>
  <path d="M9 6.5h9.5L23 11v14.5a1 1 0 0 1-1 1H9a1 1 0 0 1-1-1v-18a1 1 0 0 1 1-1z" fill="#ffffff"/>
  <path d="M18.5 6.5 23 11h-3.5a1 1 0 0 1-1-1V6.5z" fill="#c7ddfb"/>
  <rect x="10.5" y="15" width="11" height="2.2" rx="1.1" fill="#0071E3"/>
  <rect x="10.5" y="19" width="11" height="2.2" rx="1.1" fill="#0071E3"/>
  <rect x="10.5" y="23" width="7" height="2.2" rx="1.1" fill="#0071E3"/>
</svg>
